<svg version="1" xmlns="http://www.w3.org/2000/svg" width="812" height="812" viewBox="0 0 609.000000 609.000000"><path d="M331.5 42.1c-23.1 1.9-60.1 9.8-95 20.4-69.9 21.2-123.9 58.1-154.9 105.7-22.5 34.6-36.1 77.1-40.2 125.8-1.4 16.9-.6 49.5 1.6 63.5.5 3.3 1.2 8 1.5 10.5.3 2.5 1.6 9.7 3 16 1.4 6.3 2.7 12.6 3 14 1.8 8.2 9.4 30.4 14.4 41.5 19.5 44.5 52.6 78.4 97.2 99.8 18.5 8.9 40.8 16.3 57.9 19.3 1.4.2 3.6.7 5 .9 1.4.3 3.6.8 5 1 1.4.3 5.2.8 8.5 1.1 3.3.3 6.2.8 6.5.9 1.2.7 25.1 1.9 36 1.8 13.9-.1 33.3-1.4 41.5-2.7 1.7-.3 5.3-.8 8-1.1 2.8-.4 10.6-1.8 17.5-3.1 47.6-9.3 84.9-25.3 115.8-49.7 4.2-3.3 13.1-11.5 19.7-18.1 32.1-32.2 55.8-71.2 71-117.1 3.7-11.3 8.9-31.4 10-38.8.4-2.3.8-4.4 1-4.8.2-.3.7-3.4 1.1-7 .3-3.5.8-6.7 1-7 .8-1.3 1.8-22.2 1.8-34.9 0-12.4-.9-27.6-1.8-32.5-.2-1.1-.7-4.7-1.2-8-.4-3.3-.8-6.2-.9-6.5-.1-.3-.7-3.2-1.4-6.5-8.5-39.5-25.9-73.4-50-97.6-16-15.9-29.9-24.8-46.6-29.7-14.2-4.2-34.8-4.7-42.8-1.1-6.5 2.9-5.3 15 1.8 18.3 1.8.9 5.9 1.6 9 1.6 7.9 0 24.6 3.6 33 7.1 35.1 14.6 59.3 49.4 70 100.6 2.3 10.8 2.2 10.2 2.9 15.8 1.4 10.5 1.6 12.3 2.2 21.5 1.8 24.9.5 47.8-4.2 76-3 17.8-12.6 45.2-23.5 67-28.5 56.8-74.8 99.4-133.9 122.8-17.3 6.9-39.4 13.4-53.3 15.7-1.8.3-5.7 1-8.7 1.5-16.7 3-36.3 4.5-55.5 4.4-12.4-.1-28.3-1.1-31.5-1.9-.8-.2-3.7-.7-6.5-1-2.7-.3-6.1-.7-7.5-1-3.8-.8-7.2-1.5-10.1-2-7.1-1.3-27.7-7.9-37.5-12-51.9-21.7-86.7-60.5-106-118.4-5.5-16.3-10.1-36.3-12-51.6-.3-2.2-.7-4.6-.9-5.3-2.6-7.7-2.6-67.7 0-81 .1-.9.6-4 .9-6.7.4-2.8 1.1-6.8 1.6-9s1.1-5.4 1.4-7c1.7-9.6 7.7-29.5 12.8-42.5 17.5-44.3 52.1-82.2 101-110.3 8.7-5 30.1-15.7 31.4-15.7.3 0 3-1.1 5.9-2.5 10.9-5 63.3-21.7 78.5-25.1 1.9-.4 4-.9 4.5-1 21.8-5.4 41.2-7.8 61.5-7.8 16.2 0 24.3.8 36.5 3.8 9.6 2.4 13 3.5 22.3 7.8 4.7 2.1 6.8 1.7 3.6-.7-3.1-2.4-17.5-9.1-24.1-11.4-6.3-2.1-12.2-3.6-17.8-4.5-1.6-.2-4.9-.7-7.3-1.1-6-1-24.2-1.2-33.7-.4z"/><path d="M387.7 177.6c-.1.1-4.7.5-10.2.9-5.5.3-11.6.8-13.5 1-1.9.2-10.1.6-18.3 1-14.5.6-20 .9-38.7 2-5.2.3-12.9.8-17 1-4.1.2-10.9.7-15 1-4.1.2-11.3.7-16 1-4.7.3-11.4.7-15 1-17 1.1-25.2 1.6-33.5 2-23.3 1.1-36.2 1.6-50.9 2-14 .3-16.1.5-17.8 2.2-2.7 2.7-3.3 9.2-3.3 34.3 0 24.5.7 28 5.6 28 3.8 0 4.6-1.8 5.4-13 .3-5.2.8-10.9.9-12.5.2-1.7.7-6.4 1.1-10.5.4-4.1.8-8.9.9-10.5l.2-3 18.4.1c10.2 0 24.6.4 32 .8 7.4.4 17.3.9 22 1.2 4.7.2 11.4.6 15 .9 3.6.2 12.4.7 19.5 1 15.3.7 16.5 1 16 3.5-.2 1-.6 4-1 6.7-.4 2.6-.8 5.8-1 7.1-1.9 11.9-2.4 52.4-1.1 88.2 1.4 41.3 3.1 76.6 4.1 89 .2 3.6.7 10.5 1 15.5.5 9.1 1.1 17.6 2.1 29.5 1.2 15.5 2.1 17.8 8.8 21.6l3.7 2.1-5.8.7c-9.6 1.1-12.5 1.6-18.3 3.2-10.9 3.1-3.1 3.9 42 4.5 12.7.2 19.6-1.2 20.2-3.9.5-2.1-.9-6.4-2.5-7.4s-14.3-1-18.9.1c-2.1.5-3.8.7-3.8.5 0-.3 1-1.8 2.1-3.4 2-2.6 2.1-3.6 1.5-11.6-.4-4.8-.9-9-1.1-9.3-.1-.3-.6-4.6-1-9.5-.3-5-.8-9.2-.9-9.5-.2-.3-.7-4-1-8.1-.8-8-1.4-14-2.1-20.5-.2-2.2-.7-7.2-1-11-.3-3.9-.8-8.8-1-11-.3-2.2-.7-7.6-1-12-.3-4.4-.7-10-1-12.5-.6-6.1-1.4-16.9-2-26-.6-9.5-1.1-21.2-3-60.5-.3-6.6-.8-13.1-1-14.5-.2-1.4-.7-6.1-1.1-10.5-.3-4.4-.8-8.9-1-10-.2-1-.6-3.7-.9-6-1.1-7.1-1.6-10-2.1-11.8-.5-1.7 0-1.8 8.8-1.3 28.5 1.6 40.3 1.9 69.4 1.8 17.6-.1 33.4.2 35 .7 2.2.5 3.1 1.6 3.7 4.2 3.4 13.6 8.2 22.4 14 25.9 4.7 2.9 10.8 2.6 14.6-.6 7.2-6.1 10.2-30.9 5.2-43.7-6.2-15.9-16.8-21.7-40.7-22.1-5.2-.1-9.5-.1-9.7 0z"/></svg>